<svg width="52" height="52" viewBox="0 0 52 52" fill="none" xmlns="http://www.w3.org/2000/svg">
<path d="M0 26C0 11.6406 11.6406 0 26 0C40.3594 0 52 11.6406 52 26C52 40.3594 40.3594 52 26 52C11.6406 52 0 40.3594 0 26Z" fill="white"/>
<path d="M30.1894 14.0417C26.7244 14.0417 23.9127 16.8533 23.9127 20.3183C23.9127 23.7833 26.7244 26.595 30.1894 26.595C33.6544 26.595 36.4661 23.7833 36.4661 20.3183C36.4661 16.8533 33.6544 14.0417 30.1894 14.0417Z" fill="#676FC5"/>
<path opacity="0.4" d="M19.4192 27.2017C17.2842 27.2017 15.5342 28.94 15.5342 31.0867C15.5342 33.2333 17.2725 34.9717 19.4192 34.9717C21.5542 34.9717 23.3042 33.2333 23.3042 31.0867C23.3042 28.94 21.5542 27.2017 19.4192 27.2017Z" fill="#676FC5"/>
<path opacity="0.4" d="M31.3906 31.3901C29.5822 31.3901 28.1122 32.8601 28.1122 34.6685C28.1122 36.4768 29.5822 37.9468 31.3906 37.9468C33.1989 37.9468 34.6689 36.4768 34.6689 34.6685C34.6689 32.8601 33.1989 31.3901 31.3906 31.3901Z" fill="#676FC5"/>
</svg>
