<svg width="63" height="63" viewBox="0 0 63 63" fill="none" xmlns="http://www.w3.org/2000/svg">
<path d="M0 31.5C0 14.103 14.103 0 31.5 0C48.897 0 63 14.103 63 31.5C63 48.897 48.897 63 31.5 63C14.103 63 0 48.897 0 31.5Z" fill="white"/>
<path d="M1 31.5C1 14.6553 14.6553 1 31.5 1C48.3447 1 62 14.6553 62 31.5C62 48.3447 48.3447 62 31.5 62C14.6553 62 1 48.3447 1 31.5Z" stroke="url(#paint0_radial_1_98)" stroke-opacity="0.5" stroke-width="2"/>
<path opacity="0.4" d="M37.5 15.5H25.5C19.98 15.5 15.5 19.98 15.5 25.5V37.5C15.5 43.02 19.98 47.5 25.5 47.5H37.5C43.02 47.5 47.5 43.02 47.5 37.5V25.5C47.5 19.98 43.02 15.5 37.5 15.5ZM42.02 36.02C42.02 39.34 39.34 42.02 36.02 42.02H26.98C23.66 42.02 20.98 39.34 20.98 36.02V26.98C20.98 23.66 23.66 20.98 26.98 20.98H36C39.32 20.98 42 23.66 42 26.98V36.02H42.02Z" fill="#676FC5"/>
<path d="M25.6211 13V15.5H25.5011C24.5011 15.5 23.5411 15.64 22.6211 15.92V13C22.6211 12.18 23.2811 11.5 24.1211 11.5C24.9411 11.5 25.6211 12.18 25.6211 13Z" fill="#676FC5"/>
<path d="M33 13V15.5H30V13C30 12.18 30.68 11.5 31.5 11.5C32.32 11.5 33 12.18 33 13Z" fill="#676FC5"/>
<path d="M40.3984 13V15.92C39.4784 15.64 38.4984 15.5 37.4984 15.5H37.3984V13C37.3984 12.18 38.0784 11.5 38.8984 11.5C39.7184 11.5 40.3984 12.18 40.3984 13Z" fill="#676FC5"/>
<path d="M51.4982 24.1001C51.4982 24.9401 50.8382 25.6001 49.9982 25.6001H47.4982V25.5001C47.4982 24.5001 47.3582 23.5201 47.0782 22.6001H49.9982C50.8382 22.6001 51.4982 23.2801 51.4982 24.1001Z" fill="#676FC5"/>
<path d="M51.5 31.5C51.5 32.32 50.84 33 50 33H47.5V30H50C50.84 30 51.5 30.66 51.5 31.5Z" fill="#676FC5"/>
<path d="M51.4982 38.9C51.4982 39.72 50.8382 40.4 49.9982 40.4H47.0782C47.3582 39.48 47.4982 38.5 47.4982 37.5V37.4H49.9982C50.8382 37.4 51.4982 38.06 51.4982 38.9Z" fill="#676FC5"/>
<path d="M40.3984 47.08V50C40.3984 50.82 39.7184 51.5 38.8984 51.5C38.0784 51.5 37.3984 50.82 37.3984 50V47.5H37.4984C38.4984 47.5 39.4784 47.36 40.3984 47.08Z" fill="#676FC5"/>
<path d="M33.0197 47.5V50C33.0197 50.82 32.3397 51.5 31.5197 51.5C30.6797 51.5 30.0197 50.82 30.0197 50V47.5H33.0197Z" fill="#676FC5"/>
<path d="M25.6211 47.5V50C25.6211 50.82 24.9411 51.5 24.1211 51.5C23.2811 51.5 22.6211 50.82 22.6211 50V47.08C23.5411 47.36 24.5011 47.5 25.5011 47.5H25.6211Z" fill="#676FC5"/>
<path d="M15.92 22.6001C15.64 23.5201 15.5 24.5001 15.5 25.5001V25.6001H13C12.18 25.6001 11.5 24.9401 11.5 24.1001C11.5 23.2801 12.18 22.6001 13 22.6001H15.92Z" fill="#676FC5"/>
<path d="M15.5 30V33H13C12.18 33 11.5 32.32 11.5 31.5C11.5 30.66 12.18 30 13 30H15.5Z" fill="#676FC5"/>
<path d="M15.92 40.4H13C12.18 40.4 11.5 39.72 11.5 38.9C11.5 38.06 12.18 37.4 13 37.4H15.5V37.5C15.5 38.5 15.64 39.48 15.92 40.4Z" fill="#676FC5"/>
<path d="M42.0204 26.98V36C42.0204 39.32 39.3404 42 36.0204 42H26.9805C23.6605 42 20.9805 39.32 20.9805 36V26.98C20.9805 23.66 23.6605 20.98 26.9805 20.98H36.0004C39.3204 20.98 42.0204 23.68 42.0204 26.98Z" fill="#676FC5"/>
<defs>
<radialGradient id="paint0_radial_1_98" cx="0" cy="0" r="1" gradientUnits="userSpaceOnUse" gradientTransform="translate(31.5) rotate(90) scale(63)">
<stop stop-color="#676FC5" stop-opacity="0.2"/>
<stop offset="0.5" stop-color="#676FC5" stop-opacity="0.6"/>
<stop offset="1" stop-color="#676FC5"/>
</radialGradient>
</defs>
</svg>
